<?xml version="1.0" encoding="utf-8"?>
<!-- Generator: Adobe Illustrator 19.0.0, SVG Export Plug-In . SVG Version: 6.00 Build 0)  -->
<svg version="1.1" id="Layer_1" xmlns="http://www.w3.org/2000/svg" xmlns:xlink="http://www.w3.org/1999/xlink" x="0px" y="0px"
	 viewBox="-248.3 348.2 86.6 71.7" style="enable-background:new -248.3 348.2 86.6 71.7;" xml:space="preserve">
<path d="M-235.5,384c0.7,0,1.4-0.2,2.1-0.6c0.9-0.6,1.5-1.4,1.7-2.4c0.1-0.3,0.1-0.6,0.1-1l-5.6,3.5
	C-236.7,383.9-236.1,384-235.5,384z"/>
<path d="M-248.3,361.9l34.5,4.6l-13,17.3v-6c0-3.6-3-6.6-6.6-6.6h-2.2c-6,0-10.9,4.9-10.9,10.9v4.9c0,17.7,13.9,31.9,31.6,32.4
	c1.8,0,3.6,0.1,5.4,0.2c8.4,0.4,17.1,0.9,24.2-3.6c17.1-10.8,9.9-28.3,2.9-45.3c-0.6-1.5-1.2-3-1.8-4.5l22.6-4.3l-0.8-3.9l-23.3,4.4
	c-0.1-0.2-0.2-0.5-0.3-0.7l-1.3-3.2l-2.7,0.3l-1.4,4.7l-1.4,0.3c-2.8,0.5-5.7,0.7-8.5,0.4l-4.9-0.7l-0.8-3.4l-2.2,0.2l-1.9,2.6
	l-28.3-3.8l5.4-8.8l-3.4-2.1l-3.3,5.4l-2.7-5.3l-3.6,1.8l4.3,8.5l-5.1-0.7L-248.3,361.9z M-231.9,385.8c-1.1,0.7-2.4,1-3.6,1
	c-2.2,0-4.4-1.1-5.7-3.1c-0.2-0.3-0.3-0.5-0.4-0.8l11.3-7.1c0.2,0.2,0.4,0.5,0.5,0.7C-227.8,379.7-228.8,383.8-231.9,385.8z
	 M-201.7,368.1c1.1,0.1,2.3,0.2,3.4,0.2c1.9,0,3.8-0.2,5.7-0.5l-6.9,23.5l-5.7-23.7L-201.7,368.1z"/>
</svg>
