<svg xmlns="http://www.w3.org/2000/svg" version="1.1" x="0" y="0" viewBox="-291 377 28 32" xml:space="preserve">
  <path d="M-268 392h-22c-0.5 0-1 0.5-1 1v10c0 0.5 0.5 1 1 1h22c0.6 0 1-0.5 1-1v-10C-267 392.5-267.4 392-268 392zM-285.3 401h-1.9c-0.3 0-0.6-0.1-0.6-0.5V396c0-0.3 0.3-0.5 0.6-0.5h1.8C-281.7 395.5-281.8 401-285.3 401zM-278.8 401.1c-1.5 0.1-3-0.9-3-2.9 0-2 1.5-2.9 3-2.9 1.4 0.1 2.9 1 2.9 2.9C-275.9 400.1-277.4 401.1-278.8 401.1zM-270.2 400.4c-0.6 0.5-1.2 0.6-1.9 0.6 -1.9 0-2.8-1.3-2.8-2.9s1-2.9 2.8-2.9c0.7 0 1.2 0.2 1.8 0.7 0.2 0.2 0.2 0.6 0 0.8 -0.2 0.2-0.5 0.2-0.7 0 -0.3-0.3-0.7-0.4-1.1-0.4 -1.2 0-1.8 0.9-1.8 1.8 0 1 0.6 1.9 1.8 1.9 0.5 0 0.9-0.2 1.2-0.5 0.2-0.2 0.6-0.1 0.7 0.1C-270 399.9-270 400.2-270.2 400.4zM-278.8 396.3c-0.9 0-1.9 0.6-1.9 1.9 0 1.3 1 1.9 1.9 1.9 0.9 0 1.9-0.6 1.9-1.9C-276.9 396.9-277.9 396.3-278.8 396.3zM-285.4 396.4h-1.3v3.6h1.3C-283.2 400-283.1 396.4-285.4 396.4zM-264 384.6l-6.6-6.6c-0.6-0.6-1.6-1-2.4-1h-11c-1.7 0-3 1.3-3 3v10c0 0.6 0.4 1 1 1s1-0.4 1-1v-10c0-0.6 0.4-1 1-1h9c1.1 0 2 0.9 2 2v3.8c0 1.2 1 2.3 2.3 2.3h3.8c1.1 0 2 0.9 2 2v17c0 0.6-0.4 1-1 1h-18c-0.6 0-1-0.4-1-1 0-0.6-0.4-1-1-1s-1 0.4-1 1c0 1.7 1.3 3 3 3h18c1.7 0 3-1.3 3-3v-19C-263 386.2-263.4 385.2-264 384.6z"/>
</svg>