<svg xmlns="http://www.w3.org/2000/svg" version="1.1" x="0" y="0" viewBox="-291 377 28 32" xml:space="preserve">
  <path d="M-284.3 396.4h-1.3v2h1.3c0.5 0 1-0.5 1-1C-283.3 396.9-283.7 396.4-284.3 396.4zM-278.9 396.4h-1.3v3.6h1.3C-276.7 400-276.6 396.4-278.9 396.4zM-268 392h-22c-0.5 0-1 0.5-1 1v10c0 0.5 0.5 1 1 1h22c0.6 0 1-0.5 1-1v-10C-267 392.5-267.4 392-268 392zM-284.3 399.4h-1.3v1.1c0 0.4-0.2 0.6-0.5 0.6 -0.3 0-0.5-0.2-0.5-0.6v-4.5c0-0.3 0.2-0.6 0.5-0.6h1.8c1 0 2 0.7 2 2C-282.3 398.7-283.2 399.4-284.3 399.4zM-278.8 401h-1.9c-0.3 0-0.6-0.1-0.6-0.5V396c0-0.3 0.3-0.5 0.6-0.5h1.8C-275.2 395.5-275.3 401-278.8 401zM-271.7 396.5h-2.3v1.3h2c0.3 0 0.6 0.3 0.6 0.6 0 0.3-0.3 0.5-0.6 0.5h-2v1.7c0 0.3-0.2 0.5-0.5 0.5 -0.4 0-0.6-0.2-0.6-0.5V396c0-0.3 0.2-0.5 0.6-0.5h2.8c0.4 0 0.6 0.2 0.6 0.5C-271.1 396.2-271.3 396.5-271.7 396.5zM-264 384.6l-6.6-6.6c-0.6-0.6-1.6-1-2.4-1h-11c-1.7 0-3 1.3-3 3v10c0 0.6 0.4 1 1 1s1-0.4 1-1v-10c0-0.6 0.4-1 1-1h9c1.1 0 2 0.9 2 2v3.8c0 1.2 1 2.3 2.3 2.3h3.8c1.1 0 2 0.9 2 2v17c0 0.6-0.4 1-1 1h-18c-0.6 0-1-0.4-1-1 0-0.6-0.4-1-1-1s-1 0.4-1 1c0 1.7 1.3 3 3 3h18c1.7 0 3-1.3 3-3v-19C-263 386.2-263.4 385.2-264 384.6z"/>
</svg>