

<svg xmlns="http://www.w3.org/2000/svg" version="1.1" x="0" y="0" height="40px" width="60px" viewBox="-248.3 348.2 86.6 71.7" xml:space="preserve">
<path fill="white" d="M-235.5 384c0.7 0 1.4-0.2 2.1-0.6 0.9-0.6 1.5-1.4 1.7-2.4 0.1-0.3 0.1-0.6 0.1-1l-5.6 3.5C-236.7 383.9-236.1 384-235.5 384zM-248.3 361.9l34.5 4.6 -13 17.3v-6c0-3.6-3-6.6-6.6-6.6h-2.2c-6 0-10.9 4.9-10.9 10.9v4.9c0 17.7 13.9 31.9 31.6 32.4 1.8 0 3.6 0.1 5.4 0.2 8.4 0.4 17.1 0.9 24.2-3.6 17.1-10.8 9.9-28.3 2.9-45.3 -0.6-1.5-1.2-3-1.8-4.5l22.6-4.3 -0.8-3.9 -23.3 4.4c-0.1-0.2-0.2-0.5-0.3-0.7l-1.3-3.2 -2.7 0.3 -1.4 4.7 -1.4 0.3c-2.8 0.5-5.7 0.7-8.5 0.4l-4.9-0.7 -0.8-3.4 -2.2 0.2 -1.9 2.6 -28.3-3.8 5.4-8.8 -3.4-2.1 -3.3 5.4 -2.7-5.3 -3.6 1.8 4.3 8.5 -5.1-0.7L-248.3 361.9zM-231.9 385.8c-1.1 0.7-2.4 1-3.6 1 -2.2 0-4.4-1.1-5.7-3.1 -0.2-0.3-0.3-0.5-0.4-0.8l11.3-7.1c0.2 0.2 0.4 0.5 0.5 0.7C-227.8 379.7-228.8 383.8-231.9 385.8zM-201.7 368.1c1.1 0.1 2.3 0.2 3.4 0.2 1.9 0 3.8-0.2 5.7-0.5l-6.9 23.5 -5.7-23.7L-201.7 368.1z"/>
</svg>