<svg xmlns="http://www.w3.org/2000/svg" version="1.1" x="0" y="0" height="40px" width="40px" viewBox="-291 377 28 32" xml:space="preserve">
  <path d="M-268 392h-22c-0.5 0-1 0.5-1 1v10c0 0.5 0.5 1 1 1h22c0.6 0 1-0.5 1-1v-10C-267 392.5-267.4 392-268 392zM-282.5 400.7l-1.5-1.9 -1.4 1.9c-0.4 0.6-1.3-0.1-0.9-0.6l1.6-2c-0.5-0.6-1-1.2-1.5-1.8 -0.5-0.6 0.4-1.2 0.8-0.7l1.4 1.7 1.4-1.7c0.4-0.5 1.2 0.2 0.8 0.7 -0.5 0.6-1 1.2-1.5 1.8l1.6 2C-281.2 400.8-282.1 401.3-282.5 400.7zM-277.5 401h-2.6c-0.3 0-0.5-0.2-0.5-0.5v-4.6c0-0.3 0.2-0.5 0.5-0.5 0.3 0 0.5 0.2 0.5 0.5v4h2.2C-276.7 400-276.7 401-277.5 401zM-275.9 400.6c-0.3-0.2-0.3-0.6-0.1-0.8 0.2-0.2 0.4-0.3 0.7-0.1 0.7 0.4 2.3 0.8 2.5-0.4 -0.1-1.2-3.4-0.5-3.2-2.7 0.2-1.6 2.5-1.8 3.6-1 0.5 0.4 0 1.1-0.5 0.8 -0.6-0.4-1.9-0.6-2.1 0.3 -0.2 1.3 3.3 0.6 3.2 2.7C-271.8 401.5-274.8 401.5-275.9 400.6zM-264 384.6l-6.6-6.6c-0.6-0.6-1.6-1-2.4-1h-11c-1.7 0-3 1.3-3 3v10c0 0.6 0.4 1 1 1s1-0.4 1-1v-10c0-0.6 0.4-1 1-1h9c1.1 0 2 0.9 2 2v3.8c0 1.2 1 2.3 2.3 2.3h3.8c1.1 0 2 0.9 2 2v17c0 0.6-0.4 1-1 1h-18c-0.6 0-1-0.4-1-1 0-0.6-0.4-1-1-1s-1 0.4-1 1c0 1.7 1.3 3 3 3h18c1.7 0 3-1.3 3-3v-19C-263 386.2-263.4 385.2-264 384.6z"/>
</svg>